<svg width="344" height="381" viewBox="0 0 344 381" fill="none" xmlns="http://www.w3.org/2000/svg">
<line y1="-1" x2="463.078" y2="-1" transform="matrix(0.69775 -0.716341 0.69775 0.716341 2 381)" stroke="black" stroke-width="2"/>
<line y1="-1" x2="388.19" y2="-1" transform="matrix(0.69775 0.716341 -0.69775 0.716341 55.0319 38.4923)" stroke="#02FF1B" stroke-width="2"/>
<rect x="0.69775" width="28.6845" height="28.6845" transform="matrix(0.69775 -0.716341 0.69775 0.716341 174.753 161.299)" stroke="#02FF1B"/>
<line y1="-0.5" x2="62.1533" y2="-0.5" transform="matrix(0.69775 -0.716341 0.69775 0.716341 120.645 135.942)" stroke="black"/>
<line y1="-0.5" x2="62.1533" y2="-0.5" transform="matrix(0.69775 -0.716341 0.69775 0.716341 231.954 259.839)" stroke="black"/>
<path d="M65.2155 20.582L66.5631 25H68.7194L63.3053 7.9375H61.4889L55.9811 25H58.149L59.5201 20.582H65.2155ZM60.1061 18.6953L62.3912 11.2891L64.6412 18.6953H60.1061Z" fill="black"/>
<path d="M327.703 302.866H333.163C333.89 302.859 334.593 302.745 335.273 302.526C335.96 302.308 336.566 301.991 337.089 301.577C337.613 301.171 338.031 300.663 338.343 300.054C338.656 299.444 338.808 298.741 338.8 297.944C338.8 297.437 338.722 296.964 338.566 296.526C338.417 296.089 338.206 295.694 337.933 295.343C337.675 295.023 337.347 294.73 336.949 294.464C336.55 294.198 336.136 294.015 335.706 293.913V293.878C336.12 293.698 336.472 293.507 336.761 293.304C337.058 293.101 337.328 292.851 337.57 292.554C337.804 292.265 337.988 291.937 338.12 291.569C338.261 291.202 338.335 290.796 338.343 290.351C338.351 289.554 338.199 288.87 337.886 288.3C337.574 287.73 337.156 287.261 336.632 286.894C336.109 286.526 335.511 286.257 334.839 286.085C334.167 285.905 333.48 285.812 332.777 285.804H327.703V302.866ZM329.882 294.886H333.339C333.8 294.901 334.23 294.98 334.628 295.12C335.027 295.261 335.374 295.46 335.671 295.718C335.968 295.984 336.199 296.304 336.363 296.679C336.535 297.054 336.617 297.484 336.609 297.968C336.609 298.444 336.515 298.87 336.328 299.245C336.148 299.62 335.902 299.937 335.589 300.194C335.277 300.452 334.917 300.655 334.511 300.804C334.105 300.944 333.675 301.019 333.222 301.026H329.882V294.886ZM329.882 293.081V287.655H332.847C333.269 287.663 333.679 287.718 334.078 287.819C334.484 287.921 334.843 288.077 335.156 288.288C335.46 288.507 335.703 288.784 335.882 289.12C336.07 289.456 336.163 289.862 336.163 290.339C336.163 290.784 336.07 291.175 335.882 291.511C335.695 291.847 335.449 292.128 335.144 292.355C334.839 292.589 334.492 292.769 334.101 292.894C333.71 293.011 333.312 293.073 332.906 293.081H329.882Z" fill="black"/>
<path d="M296.221 55.0721H298.483V54.8846C298.342 54.5331 298.233 54.1229 298.155 53.6542C298.077 53.1776 298.038 52.7284 298.038 52.3065V46.412C298.038 45.701 297.909 45.08 297.651 44.5487C297.393 44.0175 297.042 43.5721 296.596 43.2128C296.143 42.8612 295.608 42.5995 294.991 42.4276C294.374 42.2479 293.706 42.1581 292.987 42.1581C292.198 42.1581 291.491 42.2675 290.866 42.4862C290.249 42.705 289.725 42.9901 289.296 43.3417C288.858 43.701 288.522 44.1034 288.288 44.5487C288.061 44.994 287.944 45.4471 287.936 45.9081H290.116C290.116 45.6425 290.178 45.3885 290.303 45.1464C290.436 44.8964 290.62 44.6815 290.854 44.5018C291.089 44.3221 291.374 44.1776 291.71 44.0682C292.053 43.9589 292.44 43.9042 292.87 43.9042C293.331 43.9042 293.745 43.9628 294.112 44.08C294.487 44.1971 294.803 44.3612 295.061 44.5721C295.319 44.7909 295.518 45.0526 295.659 45.3573C295.799 45.662 295.87 46.0057 295.87 46.3885V47.3846H293.503C292.62 47.3846 291.819 47.4706 291.1 47.6425C290.389 47.8143 289.78 48.0721 289.272 48.4159C288.764 48.7675 288.37 49.205 288.089 49.7284C287.815 50.2518 287.678 50.8612 287.678 51.5565C287.678 52.0878 287.78 52.5839 287.983 53.0448C288.194 53.4979 288.491 53.8885 288.874 54.2167C289.249 54.5526 289.706 54.8182 290.245 55.0135C290.792 55.2089 291.401 55.3065 292.073 55.3065C292.487 55.3065 292.878 55.2635 293.245 55.1776C293.612 55.0917 293.96 54.9745 294.288 54.826C294.608 54.6776 294.901 54.5057 295.167 54.3104C295.44 54.1151 295.686 53.9081 295.905 53.6893C295.928 53.955 295.964 54.2128 296.01 54.4628C296.065 54.705 296.135 54.9081 296.221 55.0721ZM292.389 53.4198C291.967 53.4198 291.596 53.3651 291.276 53.2557C290.956 53.1464 290.69 52.994 290.479 52.7987C290.268 52.6112 290.108 52.3846 289.999 52.119C289.897 51.8534 289.846 51.5643 289.846 51.2518C289.846 50.9237 289.905 50.6307 290.022 50.3729C290.147 50.1151 290.327 49.8925 290.561 49.705C290.889 49.4393 291.331 49.244 291.885 49.119C292.448 48.9862 293.104 48.9198 293.854 48.9198H295.87V51.4862C295.745 51.7362 295.573 51.9784 295.354 52.2128C295.135 52.4393 294.878 52.6425 294.581 52.8221C294.276 53.0018 293.94 53.1464 293.573 53.2557C293.206 53.3651 292.811 53.4198 292.389 53.4198Z" fill="black"/>
</svg>
